<svg width="18" height="17" viewBox="0 0 18 17" fill="none" xmlns="http://www.w3.org/2000/svg">
<path d="M13.3314 0H5.53485C2.99741 0 0.933105 2.0643 0.933105 4.60175V12.3984C0.933105 14.9357 2.99741 17 5.53485 17H13.3315C15.8688 17 17.9331 14.9357 17.9331 12.3984V4.60175C17.9331 2.0643 15.8688 0 13.3314 0V0ZM16.9365 12.3984C16.9365 14.3862 15.3193 16.0034 13.3314 16.0034H5.53485C3.54694 16.0034 1.92972 14.3862 1.92972 12.3984V4.60175C1.92972 2.61384 3.54694 0.996613 5.53485 0.996613H13.3315C15.3193 0.996613 16.9365 2.61384 16.9365 4.60175V12.3984Z" fill="white"/>
<path d="M9.43298 3.85156C6.86985 3.85156 4.78467 5.93674 4.78467 8.49987C4.78467 11.063 6.86985 13.1482 9.43298 13.1482C11.9961 13.1482 14.0813 11.063 14.0813 8.49987C14.0813 5.93674 11.9961 3.85156 9.43298 3.85156ZM9.43298 12.1516C7.41952 12.1516 5.78128 10.5135 5.78128 8.49987C5.78128 6.48641 7.41952 4.84818 9.43298 4.84818C11.4466 4.84818 13.0847 6.48641 13.0847 8.49987C13.0847 10.5135 11.4466 12.1516 9.43298 12.1516Z" fill="white"/>
<path d="M14.1924 2.20081C13.4349 2.20081 12.8188 2.81702 12.8188 3.57433C12.8188 4.33178 13.4349 4.94798 14.1924 4.94798C14.9498 4.94798 15.566 4.33178 15.566 3.57433C15.566 2.81689 14.9498 2.20081 14.1924 2.20081ZM14.1924 3.95124C13.9846 3.95124 13.8155 3.78211 13.8155 3.57433C13.8155 3.36642 13.9846 3.19743 14.1924 3.19743C14.4003 3.19743 14.5694 3.36642 14.5694 3.57433C14.5694 3.78211 14.4003 3.95124 14.1924 3.95124Z" fill="white"/>
</svg>
