<svg width="18" height="14" viewBox="0 0 18 14" fill="none" xmlns="http://www.w3.org/2000/svg">
<path d="M15.8969 3.17027L15.6738 3.32869L15.6869 3.60201C15.9268 8.58256 12.1162 13.4458 6.27961 13.4458C5.09952 13.4458 3.97499 13.232 2.93837 12.8382C4.23068 12.6356 5.4157 12.1039 6.39635 11.3371L7.50016 10.4739L6.09928 10.4433C5.07559 10.4209 4.17561 9.87914 3.64904 9.07186C3.95335 9.06141 4.25292 9.02007 4.53763 8.94198L4.50564 7.96995C3.38802 7.74113 2.48937 6.88307 2.20634 5.77808C2.5178 5.86706 2.84525 5.91959 3.17825 5.92591L4.8837 5.95825L3.46559 5.01031C2.67097 4.47915 2.13931 3.56232 2.13931 2.52962C2.13931 2.23773 2.18202 1.9562 2.26118 1.68853C4.04611 3.56709 6.51712 4.77827 9.27623 4.91319L9.93396 4.94536L9.78825 4.30316C9.74102 4.09498 9.7199 3.8678 9.7199 3.61904C9.7199 1.97414 11.0509 0.633331 12.7028 0.633331C13.5543 0.633331 14.3355 0.994075 14.884 1.5784L15.0742 1.78103L15.3467 1.72648C15.6269 1.67038 15.9018 1.59959 16.1705 1.51432C16.0176 1.65555 15.8495 1.78129 15.6687 1.88924L15.988 2.81455C16.1362 2.79573 16.2833 2.77292 16.4291 2.74615C16.26 2.89684 16.0826 3.0384 15.8969 3.17027Z" stroke="white"/>
</svg>
